<svg width="33" height="44" viewBox="0 0 33 44" fill="none" xmlns="http://www.w3.org/2000/svg">
<path d="M30.3441 26.1392C27.2891 31.9236 23.5001 37.2927 19.0701 42.1145L17.9776 43.3416C17.7944 43.5485 17.569 43.7142 17.3165 43.8278C17.064 43.9413 16.7902 44 16.5131 44C16.2361 44 15.9623 43.9413 15.7098 43.8278C15.4573 43.7142 15.2319 43.5485 15.0487 43.3416C9.43496 36.963 4.18152 30.4803 1.10152 22.5042C0.207176 20.1781 -0.149795 17.6813 0.057101 15.1991C0.263997 12.7168 1.02945 10.3128 2.29666 8.1655C3.56386 6.01817 5.30029 4.18263 7.37709 2.79508C9.45388 1.40752 11.8177 0.503589 14.2932 0.150348C16.4808 -0.146811 18.7061 -0.00250852 20.8366 0.574663C22.9671 1.15183 24.9592 2.15007 26.6943 3.50995C28.4294 4.86983 29.8721 6.56353 30.9364 8.49024C32.0007 10.4169 32.6649 12.5372 32.8894 14.7249C33.3892 18.8808 32.134 22.5621 30.3441 26.1392Z" fill="#2157B0"/>
<circle cx="16.5" cy="18.0715" r="13.3571" fill="#00A662"/>
<circle cx="16.5" cy="18.0715" r="10.2143" fill="white"/>
<path d="M17.9553 11.0281L12.5714 18.6327H15.7143L14.9406 23.4937C14.9391 23.5032 14.9395 23.513 14.9417 23.5224C14.9439 23.5317 14.9479 23.5404 14.9533 23.5478C14.9588 23.5552 14.9656 23.5612 14.9733 23.5653C14.9809 23.5694 14.9893 23.5715 14.9978 23.5714C15.0068 23.5714 15.0157 23.569 15.0238 23.5644C15.0318 23.5597 15.0388 23.553 15.0442 23.5448L20.4286 15.9388H17.2857L18.0631 11.0772C18.0641 11.0675 18.0633 11.0577 18.0608 11.0483C18.0583 11.039 18.054 11.0304 18.0484 11.0231C18.0427 11.0158 18.0357 11.01 18.0279 11.006C18.0201 11.002 18.0117 11 18.0032 11C17.9938 11 17.9846 11.0026 17.9763 11.0075C17.968 11.0124 17.9608 11.0194 17.9553 11.0281Z" fill="#89898C"/>
</svg>
